# Blender v2.71 (sub 0) OBJ File: 'cannon.blend'
# www.blender.org
mtllib cannon.mtl
o Cylinder.001
v 2.378773 1.031475 -0.257373
v 3.349333 1.018258 -0.257373
v 2.378085 0.980929 -0.252423
v 3.348645 0.967712 -0.252423
v 2.377423 0.932326 -0.237763
v 3.347983 0.919109 -0.237763
v 2.376813 0.887533 -0.213956
v 3.347373 0.874316 -0.213956
v 2.376279 0.848272 -0.181917
v 3.346838 0.835054 -0.181917
v 2.375840 0.816050 -0.142878
v 3.346399 0.802833 -0.142878
v 2.375514 0.792108 -0.098338
v 3.346073 0.778891 -0.098338
v 2.375313 0.777364 -0.050009
v 3.345872 0.764147 -0.050009
v 2.375245 0.772386 0.000250
v 3.345805 0.759169 0.000250
v 2.375313 0.777364 0.050510
v 3.345872 0.764147 0.050510
v 2.375514 0.792108 0.098839
v 3.346073 0.778891 0.098839
v 2.375840 0.816050 0.143379
v 3.346399 0.802833 0.143379
v 2.376279 0.848272 0.182418
v 3.346838 0.835054 0.182418
v 2.376813 0.887533 0.214457
v 3.347373 0.874316 0.214457
v 2.377423 0.932326 0.238264
v 3.347983 0.919109 0.238264
v 2.378085 0.980930 0.252924
v 3.348645 0.967712 0.252924
v 2.378773 1.031475 0.257874
v 3.349333 1.018258 0.257874
v 2.379462 1.082021 0.252924
v 3.350021 1.068804 0.252924
v 2.380124 1.130625 0.238264
v 3.350683 1.117407 0.238264
v 2.380734 1.175418 0.214457
v 3.351293 1.162200 0.214457
v 2.381269 1.214679 0.182418
v 3.351828 1.201462 0.182418
v 2.381707 1.246900 0.143378
v 3.352267 1.233683 0.143378
v 2.382033 1.270843 0.098839
v 3.352593 1.257625 0.098839
v 2.382234 1.285586 0.050510
v 3.352793 1.272369 0.050510
v 2.382302 1.290564 0.000250
v 3.352861 1.277347 0.000250
v 2.382234 1.285586 -0.050010
v 3.352793 1.272369 -0.050010
v 2.382033 1.270842 -0.098338
v 3.352593 1.257625 -0.098338
v 2.381707 1.246900 -0.142878
v 3.352267 1.233683 -0.142878
v 2.381269 1.214679 -0.181917
v 3.351828 1.201461 -0.181917
v 2.380734 1.175417 -0.213956
v 3.351293 1.162200 -0.213956
v 2.380124 1.130624 -0.237763
v 3.350683 1.117407 -0.237763
v 2.379462 1.082021 -0.252423
v 3.350021 1.068803 -0.252423
vn -0.001300 -0.097400 -0.995200
vn -0.003900 -0.288700 -0.957400
vn -0.006400 -0.469200 -0.883000
vn -0.008600 -0.632100 -0.774800
vn -0.010500 -0.771100 -0.636600
vn -0.012000 -0.880700 -0.473500
vn -0.013000 -0.956400 -0.291800
vn -0.013600 -0.995000 -0.098600
vn -0.013600 -0.995000 0.098600
vn -0.013000 -0.956400 0.291800
vn -0.012000 -0.880700 0.473500
vn -0.010500 -0.771100 0.636600
vn -0.008600 -0.632100 0.774800
vn -0.006400 -0.469200 0.883000
vn -0.003900 -0.288700 0.957400
vn -0.001300 -0.097500 0.995200
vn 0.001300 0.097400 0.995200
vn 0.003900 0.288700 0.957400
vn 0.006400 0.469200 0.883000
vn 0.008600 0.632100 0.774800
vn 0.010500 0.771100 0.636600
vn 0.012000 0.880700 0.473500
vn 0.013000 0.956400 0.291800
vn 0.013600 0.995000 0.098600
vn 0.013600 0.995000 -0.098600
vn 0.013000 0.956400 -0.291800
vn 0.012000 0.880700 -0.473500
vn 0.010500 0.771100 -0.636600
vn 0.008600 0.632100 -0.774800
vn 0.006400 0.469200 -0.883000
vn 0.999900 -0.013600 0.000000
vn 0.001300 0.097400 -0.995200
vn 0.003900 0.288700 -0.957400
vn -0.999900 0.013600 0.000000
usemtl Material
s off
f 1//1 2//1 4//1 3//1
f 3//2 4//2 6//2 5//2
f 5//3 6//3 8//3 7//3
f 7//4 8//4 10//4 9//4
f 9//5 10//5 12//5 11//5
f 11//6 12//6 14//6 13//6
f 13//7 14//7 16//7 15//7
f 15//8 16//8 18//8 17//8
f 17//9 18//9 20//9 19//9
f 19//10 20//10 22//10 21//10
f 21//11 22//11 24//11 23//11
f 23//12 24//12 26//12 25//12
f 25//13 26//13 28//13 27//13
f 27//14 28//14 30//14 29//14
f 29//15 30//15 32//15 31//15
f 31//16 32//16 34//16 33//16
f 33//17 34//17 36//17 35//17
f 35//18 36//18 38//18 37//18
f 37//19 38//19 40//19 39//19
f 39//20 40//20 42//20 41//20
f 41//21 42//21 44//21 43//21
f 43//22 44//22 46//22 45//22
f 45//23 46//23 48//23 47//23
f 47//24 48//24 50//24 49//24
f 49//25 50//25 52//25 51//25
f 51//26 52//26 54//26 53//26
f 53//27 54//27 56//27 55//27
f 55//28 56//28 58//28 57//28
f 57//29 58//29 60//29 59//29
f 59//30 60//30 62//30 61//30
f 4//31 2//31 64//31 62//31 60//31 58//31 56//31 54//31 52//31 50//31 48//31 46//31 44//31 42//31 40//31 38//31 36//31 34//31 32//31 30//31 28//31 26//31 24//31 22//31 20//31 18//31 16//31 14//31 12//31 10//31 8//31 6//31
f 63//32 64//32 2//32 1//32
f 61//33 62//33 64//33 63//33
f 1//34 3//34 5//34 7//34 9//34 11//34 13//34 15//34 17//34 19//34 21//34 23//34 25//34 27//34 29//34 31//34 33//34 35//34 37//34 39//34 41//34 43//34 45//34 47//34 49//34 51//34 53//34 55//34 57//34 59//34 61//34 63//34
o Cylinder
v -2.946873 1.101697 -0.181016
v 2.946873 1.021434 -0.181016
v -2.947335 1.067754 -0.177538
v 2.946410 0.987492 -0.177538
v -2.947779 1.035116 -0.167237
v 2.945966 0.954854 -0.167237
v -2.948189 1.005037 -0.150510
v 2.945556 0.924774 -0.150510
v -2.948548 0.978672 -0.127998
v 2.945197 0.898409 -0.127998
v -2.948843 0.957035 -0.100567
v 2.944903 0.876772 -0.100567
v -2.949062 0.940957 -0.069272
v 2.944684 0.860695 -0.069272
v -2.949197 0.931057 -0.035315
v 2.944549 0.850794 -0.035315
v -2.949242 0.927714 -0.000000
v 2.944503 0.847451 -0.000000
v -2.949197 0.931057 0.035315
v 2.944549 0.850794 0.035315
v -2.949062 0.940957 0.069272
v 2.944684 0.860695 0.069272
v -2.948843 0.957035 0.100567
v 2.944903 0.876772 0.100567
v -2.948548 0.978672 0.127998
v 2.945197 0.898409 0.127998
v -2.948189 1.005037 0.150510
v 2.945556 0.924774 0.150510
v -2.947779 1.035116 0.167237
v 2.945966 0.954854 0.167237
v -2.947335 1.067754 0.177538
v 2.946410 0.987492 0.177538
v -2.946873 1.101697 0.181016
v 2.946873 1.021434 0.181016
v -2.946410 1.135639 0.177538
v 2.947335 1.055376 0.177538
v -2.945966 1.168277 0.167237
v 2.947779 1.088014 0.167237
v -2.945556 1.198357 0.150510
v 2.948189 1.118094 0.150510
v -2.945197 1.224721 0.127998
v 2.948548 1.144459 0.127998
v -2.944903 1.246358 0.100567
v 2.948843 1.166096 0.100567
v -2.944684 1.262436 0.069272
v 2.949062 1.182173 0.069272
v -2.944549 1.272337 0.035314
v 2.949197 1.192074 0.035314
v -2.944503 1.275680 -0.000000
v 2.949242 1.195417 -0.000000
v -2.944549 1.272337 -0.035315
v 2.949197 1.192074 -0.035315
v -2.944684 1.262436 -0.069272
v 2.949062 1.182173 -0.069272
v -2.944903 1.246358 -0.100568
v 2.948843 1.166095 -0.100568
v -2.945197 1.224721 -0.127998
v 2.948548 1.144458 -0.127998
v -2.945556 1.198356 -0.150510
v 2.948189 1.118093 -0.150510
v -2.945966 1.168277 -0.167237
v 2.947779 1.088014 -0.167237
v -2.946410 1.135639 -0.177538
v 2.947335 1.055376 -0.177538
vn -0.001400 -0.101900 -0.994800
vn -0.004100 -0.300900 -0.953600
vn -0.006600 -0.485900 -0.874000
vn -0.008800 -0.649300 -0.760500
vn -0.010700 -0.785000 -0.619300
vn -0.012100 -0.889400 -0.457000
vn -0.013100 -0.959900 -0.279900
vn -0.013600 -0.995500 -0.094300
vn -0.013600 -0.995500 0.094300
vn -0.013100 -0.959900 0.279900
vn -0.012100 -0.889400 0.457000
vn -0.010700 -0.785000 0.619300
vn -0.008800 -0.649300 0.760500
vn -0.006600 -0.485900 0.874000
vn -0.004100 -0.300900 0.953600
vn -0.001400 -0.101900 0.994800
vn 0.001400 0.101900 0.994800
vn 0.004100 0.300900 0.953600
vn 0.006600 0.485900 0.874000
vn 0.008800 0.649300 0.760500
vn 0.010700 0.785000 0.619400
vn 0.012100 0.889400 0.457000
vn 0.013100 0.959900 0.279900
vn 0.013600 0.995500 0.094200
vn 0.013600 0.995500 -0.094300
vn 0.013100 0.959900 -0.279900
vn 0.012100 0.889400 -0.457000
vn 0.010700 0.785000 -0.619400
vn 0.008800 0.649300 -0.760500
vn 0.006600 0.485900 -0.874000
vn 0.999900 -0.013600 0.000000
vn 0.001400 0.101900 -0.994800
vn 0.004100 0.300900 -0.953600
vn -0.999900 0.013600 -0.000000
usemtl Material
s off
f 65//35 66//35 68//35 67//35
f 67//36 68//36 70//36 69//36
f 69//37 70//37 72//37 71//37
f 71//38 72//38 74//38 73//38
f 73//39 74//39 76//39 75//39
f 75//40 76//40 78//40 77//40
f 77//41 78//41 80//41 79//41
f 79//42 80//42 82//42 81//42
f 81//43 82//43 84//43 83//43
f 83//44 84//44 86//44 85//44
f 85//45 86//45 88//45 87//45
f 87//46 88//46 90//46 89//46
f 89//47 90//47 92//47 91//47
f 91//48 92//48 94//48 93//48
f 93//49 94//49 96//49 95//49
f 95//50 96//50 98//50 97//50
f 97//51 98//51 100//51 99//51
f 99//52 100//52 102//52 101//52
f 101//53 102//53 104//53 103//53
f 103//54 104//54 106//54 105//54
f 105//55 106//55 108//55 107//55
f 107//56 108//56 110//56 109//56
f 109//57 110//57 112//57 111//57
f 111//58 112//58 114//58 113//58
f 113//59 114//59 116//59 115//59
f 115//60 116//60 118//60 117//60
f 117//61 118//61 120//61 119//61
f 119//62 120//62 122//62 121//62
f 121//63 122//63 124//63 123//63
f 123//64 124//64 126//64 125//64
f 68//65 66//65 128//65 126//65 124//65 122//65 120//65 118//65 116//65 114//65 112//65 110//65 108//65 106//65 104//65 102//65 100//65 98//65 96//65 94//65 92//65 90//65 88//65 86//65 84//65 82//65 80//65 78//65 76//65 74//65 72//65 70//65
f 127//66 128//66 66//66 65//66
f 125//67 126//67 128//67 127//67
f 65//68 67//68 69//68 71//68 73//68 75//68 77//68 79//68 81//68 83//68 85//68 87//68 89//68 91//68 93//68 95//68 97//68 99//68 101//68 103//68 105//68 107//68 109//68 111//68 113//68 115//68 117//68 119//68 121//68 123//68 125//68 127//68
